# Blender v2.81 (sub 16) OBJ File: ''
# www.blender.org
mtllib shrine.mtl
o Cube_Cube.001
v -1.000000 -1.000000 1.000000
v -0.602652 -0.667791 0.602652
v -1.000000 -1.000000 -1.000000
v -0.602652 -0.667791 -0.602652
v 1.000000 -1.000000 1.000000
v 0.602652 -0.667791 0.602652
v 1.000000 -1.000000 -1.000000
v 0.602652 -0.667791 -0.602652
v -1.000000 -0.667791 1.000000
v -1.000000 -0.667791 -1.000000
v 1.000000 -0.667791 -1.000000
v 1.000000 -0.667791 1.000000
v -0.602652 -0.239348 0.602652
v -0.602652 -0.239348 -0.602652
v 0.602652 -0.239348 -0.602652
v 0.602652 -0.239348 0.602652
vt 0.375000 0.000000
vt 0.625000 0.000000
vt 0.625000 0.250000
vt 0.375000 0.250000
vt 0.625000 0.500000
vt 0.375000 0.500000
vt 0.625000 0.750000
vt 0.375000 0.750000
vt 0.625000 1.000000
vt 0.375000 1.000000
vt 0.125000 0.500000
vt 0.125000 0.750000
vt 0.825332 0.700331
vt 0.674669 0.700331
vt 0.674669 0.700331
vt 0.825332 0.700331
vt 0.825332 0.549669
vt 0.875000 0.500000
vt 0.875000 0.750000
vt 0.674669 0.549669
vt 0.674669 0.549669
vt 0.825332 0.549669
vn -1.0000 0.0000 0.0000
vn 0.0000 0.0000 -1.0000
vn 1.0000 0.0000 0.0000
vn 0.0000 0.0000 1.0000
vn 0.0000 -1.0000 0.0000
vn 0.0000 1.0000 0.0000
usemtl None
s off
f 1/1/1 9/2/1 10/3/1 3/4/1
f 3/4/2 10/3/2 11/5/2 7/6/2
f 7/6/3 11/5/3 12/7/3 5/8/3
f 5/8/4 12/7/4 9/9/4 1/10/4
f 3/11/5 7/6/5 5/8/5 1/12/5
f 2/13/4 6/14/4 16/15/4 13/16/4
f 2/13/6 4/17/6 10/18/6 9/19/6
f 4/17/6 8/20/6 11/5/6 10/18/6
f 8/20/6 6/14/6 12/7/6 11/5/6
f 6/14/6 2/13/6 9/19/6 12/7/6
f 15/21/6 14/22/6 13/16/6 16/15/6
f 8/20/2 4/17/2 14/22/2 15/21/2
f 6/14/3 8/20/3 15/21/3 16/15/3
f 4/17/1 2/13/1 13/16/1 14/22/1
o Cube.001_Cube.002
v -0.211536 0.190373 0.211536
v 0.087621 0.365615 0.262863
v -0.262863 0.365615 -0.087621
v 0.036294 0.540857 -0.036294
v -0.036294 -0.057457 0.036294
v 0.262863 0.117785 0.087621
v -0.087621 0.117785 -0.262863
v 0.211536 0.293027 -0.211536
vt 0.375000 0.000000
vt 0.625000 0.000000
vt 0.625000 0.250000
vt 0.375000 0.250000
vt 0.625000 0.500000
vt 0.375000 0.500000
vt 0.625000 0.750000
vt 0.375000 0.750000
vt 0.625000 1.000000
vt 0.375000 1.000000
vt 0.125000 0.500000
vt 0.125000 0.750000
vt 0.875000 0.500000
vt 0.875000 0.750000
vn -0.5000 0.7071 0.5000
vn -0.1464 0.5000 -0.8536
vn 0.5000 -0.7071 -0.5000
vn 0.1464 -0.5000 0.8536
vn -0.8536 -0.5000 -0.1464
vn 0.8536 0.5000 0.1464
usemtl None
s off
f 17/23/7 18/24/7 20/25/7 19/26/7
f 19/26/8 20/25/8 24/27/8 23/28/8
f 23/28/9 24/27/9 22/29/9 21/30/9
f 21/30/10 22/29/10 18/31/10 17/32/10
f 19/33/11 23/28/11 21/30/11 17/34/11
f 24/27/12 20/35/12 18/36/12 22/29/12
